<svg width="83" height="95" viewBox="0 0 83 95" fill="none" xmlns="http://www.w3.org/2000/svg">
<g clip-path="url(#clip0)">
<g opacity="0.993467">
<g opacity="0.993467">
<g opacity="0.993467">
<path opacity="0.993467" d="M13.4535 41.4797C10.7048 42.7727 3.42951 48.5933 2.02828 50.3179C0.573073 52.0424 0.142067 49.3479 1.65099 44.8748C2.83632 41.2641 5.85469 36.3598 10.9204 32.1563C13.8843 29.7312 20.4054 26.2283 24.3932 24.1802C25.2018 23.7489 35.6568 19.3299 44.9802 17.1203C45.7888 16.9047 44.0102 18.4676 43.7406 19.3299C42.3394 23.4256 14.3692 40.9945 14.3692 40.9945L13.4535 41.4797Z" fill="black"/>
<path opacity="0.993467" d="M52.8484 90.8986C53.3334 93.8087 52.9024 94.0244 49.8845 94.4017C46.8664 94.779 44.6569 93.6471 43.8486 92.8927C43.04 92.1379 42.8786 90.4676 43.6869 88.9587C44.1722 87.9884 44.6572 87.6651 44.9268 86.4795C45.1961 85.3479 45.4118 85.0783 45.6271 84.6473C45.8425 84.2697 45.8967 83.8924 45.9504 81.2519C46.0044 78.6113 45.9504 73.653 46.2201 71.5515C46.4897 69.3959 55.8131 72.5214 55.8131 72.5214C55.8131 72.5214 53.6033 78.0184 53.0106 79.3657C52.4177 80.7132 52.4716 83.2998 52.4716 83.8387C52.4716 84.3777 52.2563 85.4553 52.0943 85.5093C51.9327 85.563 52.6333 86.9642 52.3097 87.7728C52.0941 88.5274 52.7947 90.4676 52.8484 90.8986V90.8986Z" fill="black"/>
<path opacity="0.993467" d="M56.4055 8.49754C56.0819 6.44967 56.4055 2.40737 56.8365 1.76099C58.184 -0.0715153 65.2976 -0.286887 66.8068 1.86867C67.4534 2.83864 67.3994 5.10214 67.2917 6.55735C67.184 8.0123 66.8068 11.1381 66.7528 12.1623C66.6991 12.9169 58.8846 14.1022 57.16 12.0543C56.6748 11.5156 56.4055 8.49754 56.4055 8.49754Z" fill="black"/>
<path opacity="0.993467" d="M72.2498 85.671C75.5372 88.0424 78.0701 88.4734 79.7406 89.3357C81.4112 90.1982 80.9802 91.8688 78.1777 92.3538C75.9142 92.7848 72.3574 91.9225 69.9863 91.9225C67.6151 91.9225 62.3334 92.1921 60.9322 91.2222C59.3156 90.0906 60.016 87.9884 60.016 87.9884C60.4472 86.8031 61.5249 84.162 61.2016 82.0065C60.8782 79.8509 60.447 78.6653 59.6387 76.6712C58.8304 74.6773 58.2377 69.7732 58.9923 69.5036C59.7469 69.234 59.531 69.5036 60.5012 69.719C61.4712 69.9343 62.5491 70.2579 64.6509 70.2579C66.7528 70.2579 69.07 69.9343 69.8786 69.7729C70.6869 69.6113 71.3335 69.4493 71.0639 71.1202C70.7946 72.7908 69.9862 75.9166 69.9323 78.3417C69.8786 80.7669 69.8786 83.5694 70.0402 84.0544C70.2016 84.5393 71.3875 85.0783 72.2498 85.671V85.671Z" fill="black"/>
<g opacity="0.993467">
<g opacity="0.993467">
<path opacity="0.993467" d="M60.7168 13.8868C54.7889 19.0068 43.3096 20.4078 26.28 26.9827C21.9146 28.6532 10.274 33.6652 7.47156 38.8929C16.9026 33.4499 20.4057 40.9408 21.16 48.6473C21.8604 55.8688 25.4714 59.6415 34.7408 59.4256C44.2799 59.2102 47.19 64.7609 49.8306 71.2821C54.9502 46.3298 63.142 41.4797 68.4231 37.2223C79.633 28.1143 65.8365 12.0543 60.7168 13.8868V13.8868Z" fill="#88CE02"/>
<path opacity="0.993467" d="M60.7168 13.8868C46.4894 18.8449 32.4234 20.0844 15.8787 30.2701C11.9446 32.6953 3.64516 38.192 2.02829 48.7012C8.06397 42.0184 22.0221 33.6115 39.1059 28.2762C47.7287 25.5814 54.0343 23.8032 61.6868 20.839C61.1481 17.3897 61.1481 16.0424 60.7168 13.8868Z" fill="#88CE02"/>
</g>
<path opacity="0.993467" d="M78.8784 43.4196C78.8784 43.4196 77.8544 46.9227 75.8065 48.0546C75.8065 48.0546 74.2976 48.5936 71.2798 46.923C70.4175 46.438 69.7709 44.7674 69.8246 44.2282C69.8786 42.9347 70.6869 42.342 70.6869 42.342C70.6869 42.342 71.5494 40.8868 72.5731 40.9407C73.5973 40.9945 75.3218 41.1561 75.8608 40.6711C76.3455 40.1322 78.9863 41.6411 78.8784 43.4196Z" fill="black"/>
<path opacity="0.993467" d="M56.8904 9.52148C56.8904 9.52148 56.6751 12.2702 56.2978 13.9945C56.2438 14.3181 54.6272 14.4795 53.4413 14.9648C55.7048 21.4317 69.3396 21.3777 71.1181 18.1982C70.2559 17.6056 68.5313 16.6893 67.723 16.366C66.9144 16.0424 66.9684 16.0964 66.9144 14.5875C66.8607 13.0783 66.7528 10.2761 66.6448 9.52148C66.5371 8.76689 58.1837 8.76689 56.8904 9.52148Z" fill="black"/>
<path opacity="0.993467" d="M57.4294 9.52148C57.4294 9.52148 57.4294 11.0844 57.2677 12.5933C57.214 13.2939 57.16 13.7249 57.0523 14.2639C56.9984 14.5875 58.8846 15.8805 59.4235 18.7369C62.0104 24.5033 67.9926 21.6471 70.4715 18.8986C69.6092 18.3057 68.208 17.4974 66.5914 16.8507C65.7828 16.5271 66.1601 15.8268 66.1064 14.3179C66.0524 12.8089 65.8368 10.5991 65.7291 9.79083C65.6209 8.98253 58.7229 8.76689 57.4294 9.52148V9.52148Z" fill="#EFEFEF"/>
<path opacity="0.993467" d="M56.8904 9.52148C56.8904 9.52148 56.8364 10.4917 56.675 11.6233C57.3754 12.3237 58.2917 13.2939 58.9925 13.8869C59.4775 14.3181 60.6628 14.2641 61.741 14.2641C62.711 14.2641 63.5733 14.3718 63.9506 14.1565C64.8131 13.7252 66.0524 12.6475 66.753 11.839C66.6993 10.869 66.6453 9.95275 66.5916 9.52148C66.5371 8.76689 58.1837 8.76689 56.8904 9.52148Z" fill="black"/>
<path opacity="0.993467" d="M61.7948 13.6172C61.1479 13.6172 60.3933 13.5635 59.8006 13.4556C59.531 13.4019 59.2616 13.2402 59.046 13.1323C58.6687 12.8626 58.2914 12.5396 57.8607 12.216C56.9981 11.5694 56.9444 11.1921 56.9444 11.0307C57.3217 7.63527 56.8365 4.7791 56.8365 4.7791C56.8365 4.7791 56.4592 3.32388 58.507 2.94659C60.5549 2.56929 61.7945 2.51558 61.7945 2.51558C61.7945 2.51558 63.088 2.51558 65.0819 2.94659C67.1298 3.32388 66.7525 4.7791 66.7525 4.7791C66.7525 4.7791 66.2675 7.63527 66.6448 11.0307C66.6448 11.1921 66.5911 11.5694 65.7286 12.216C64.974 12.755 64.3813 13.3476 63.7887 13.4556C63.1957 13.5635 62.4411 13.6172 61.7948 13.6172V13.6172Z" fill="black"/>
<path opacity="0.993467" d="M61.7947 1.11435C58.238 1.11435 57.5371 2.08431 56.5131 3.16222C56.2978 3.43157 56.4592 5.04843 56.8367 8.49754H57.3217C57.3217 8.49754 56.9981 7.52732 57.0521 6.39569C57.1061 5.26407 57.3217 5.31805 57.1598 5.04844C56.9444 4.72485 56.5131 4.18589 57.4834 3.6472C58.4533 3.10824 59.9622 4.07821 61.7947 4.13218C63.627 4.07821 65.1899 3.10824 66.1598 3.6472C67.1298 4.18589 66.6988 4.72485 66.4834 5.04844C66.2678 5.37176 66.5371 5.26381 66.5911 6.39569C66.6448 7.52732 66.3215 8.49754 66.3215 8.49754H66.8065C67.1298 5.04843 67.3454 3.53952 67.1838 3.26991C66.2675 2.08431 65.3515 1.16806 61.7947 1.11435V1.11435Z" fill="black"/>
<path opacity="0.993467" d="M78.8784 43.5813C78.8784 43.5813 77.8544 46.8687 75.8605 48.0004C75.4293 47.785 75.4832 47.4617 75.1059 46.9764C74.998 46.815 74.6207 46.7068 74.4593 46.5454C74.2976 46.3838 74.3516 46.1142 74.082 45.8988C73.8664 45.6831 73.7047 45.8448 73.4891 45.6831C73.2737 45.4678 73.2195 45.1982 73.0581 45.0368C72.9501 44.9288 72.5191 44.8751 72.4114 44.7672C72.1418 44.4975 69.7709 44.0126 69.8786 43.4736C70.0939 42.665 70.5252 42.0724 70.5252 42.0724C70.5252 42.0724 71.5491 40.5635 72.5728 40.6172C73.5968 40.6711 74.567 40.8868 75.1059 40.4018C75.6989 39.8626 79.0403 41.8567 78.8784 43.5813V43.5813Z" fill="black"/>
<path opacity="0.993467" d="M71.8725 19.7611C71.8725 19.7611 75.2676 18.9526 77.5851 21.1624C79.9026 23.4259 79.7407 26.2281 79.0403 27.9526C79.633 28.6532 80.7109 30.5932 79.9026 32.9107C83.4594 35.9285 81.8965 40.5635 78.717 43.6353C78.717 43.6353 77.9624 40.8328 74.9446 40.6712C75.0522 39.5935 72.1421 38.731 73.4893 35.9285C71.4415 35.4435 71.4954 34.0423 71.1721 32.318C70.9025 30.5932 71.8725 19.7611 71.8725 19.7611V19.7611Z" fill="black"/>
<path opacity="0.993467" d="M70.6329 21.27C70.6329 21.27 74.567 19.2761 76.8845 21.5396C79.2017 23.8032 78.5548 26.282 77.8544 28.0066C78.4471 28.707 79.8483 30.7014 78.9861 33.0723C78.8244 33.6113 77.6388 33.6113 76.7763 35.0125C78.9318 33.7727 80.2793 34.0962 80.7643 35.6589C81.5189 38.084 79.8481 40.9942 78.3931 42.6111C78.3931 42.5571 78.3392 42.5031 78.3392 42.4494C78.1238 43.258 77.8542 44.8206 76.2376 46.5452C75.429 47.4074 74.7824 47.2998 73.8661 47.0841C72.7885 46.8145 72.4112 46.3293 70.9022 45.5212C70.04 45.0362 70.525 44.4433 70.525 43.9583C70.525 43.8506 70.6326 43.6887 70.7946 43.4733C70.9022 43.2037 71.2256 42.773 71.7105 42.2877C71.7105 42.2877 72.4112 41.3178 73.4354 41.3715C74.4593 41.4255 75.537 41.2101 75.8066 40.9405C75.8066 39.0543 73.651 39.0003 74.4053 35.7668C74.4593 35.6052 74.7289 35.3356 75.5909 35.2279C74.2974 34.9583 73.7047 34.9043 72.7885 34.0423C72.1418 33.4496 71.6568 32.695 71.4949 31.725C71.1719 30.0545 70.6329 21.27 70.6329 21.27V21.27Z" fill="#EFEFEF"/>
<path opacity="0.993467" d="M59.2616 17.8749C58.9383 17.4436 57.2677 15.2881 54.088 14.4258C53.1717 14.1562 52.579 14.9108 51.6631 15.4497C51.3934 15.2881 50.2079 14.7491 49.5612 15.1262C48.9146 15.5032 48.4836 15.8807 47.8367 16.1501C47.5131 15.9884 46.6511 15.9884 45.9504 16.2578C45.2498 16.4734 44.1719 16.9584 43.148 18.3596C42.5013 20.6771 54.5729 18.9523 54.5729 18.9523L59.2616 17.8749Z" fill="black"/>
<path opacity="0.993467" d="M59.3696 17.8749C57.6448 17.282 57.9144 15.2881 54.088 14.9648C53.3334 14.9108 52.8484 15.5034 52.3094 15.8807C52.5791 16.1504 52.8484 16.5814 53.0101 17.0124C52.5251 16.4737 51.6628 15.7728 50.8003 15.6111C49.992 15.4497 49.453 16.0424 48.5907 16.4737C48.7521 16.6351 48.914 16.9047 49.1294 17.2283C48.3748 16.7433 47.8361 16.5816 46.8122 16.9587C46.1116 17.174 44.7643 17.767 43.7404 19.2222C43.0937 21.5396 54.6267 18.9526 54.6267 18.9526L59.3696 17.8749Z" fill="#88CE02"/>
<path opacity="0.993467" d="M69.5013 18.7372C69.5013 18.7372 69.5013 18.1443 69.4473 17.6056C69.4473 17.4979 69.0163 17.2283 69.0163 17.1206L68.9086 17.0126C68.9086 17.0126 69.7709 16.5277 70.4175 16.7973C71.1179 17.0126 71.4952 17.9289 71.4952 17.9289C72.7347 17.4979 72.8424 17.9829 73.4354 18.6295C74.7289 18.3599 74.8903 18.8449 75.6989 20.0307C75.6989 20.0307 74.7289 19.8691 72.8427 20.1921C71.0102 20.4615 69.5013 18.6832 69.5013 18.7372V18.7372Z" fill="black"/>
<path opacity="0.993467" d="M69.2856 18.4676C69.2856 18.4676 69.6089 18.198 69.501 18.144C70.0937 17.8207 70.9022 17.4436 71.2795 18.4676C72.5191 18.0363 72.6808 18.6292 73.2734 19.2761C74.7823 18.5755 74.89 19.4375 74.998 19.8148C74.513 19.8148 73.8126 19.8688 72.8424 19.9765C71.0102 20.2461 69.2316 18.4136 69.2856 18.4676Z" fill="#88CE02"/>
<path opacity="0.993467" d="M50.9624 17.1203C50.9624 17.1203 54.0343 18.198 56.6211 18.0363C59.2079 17.8209 63.627 17.6053 65.9982 19.0065C65.9982 19.0065 68.4234 18.144 70.6869 18.7369C72.9506 19.3296 77.1001 23.21 75.8608 27.3057C75.7528 27.5753 75.0522 28.0063 74.2439 28.2759C74.2439 28.2759 74.6752 30.1082 73.9206 31.6171C73.166 33.0723 71.4954 35.8748 71.4415 39.7549C71.3877 40.4015 71.2801 41.7488 71.1721 42.3954C66.9684 42.234 60.5015 40.6709 54.1422 40.7788C54.1959 40.0785 54.2499 39.6472 54.3039 38.9466H54.4653C54.1419 37.1681 54.0343 36.2518 53.7107 34.9045C51.6628 33.6113 49.507 32.1023 47.675 29.2459C45.8965 26.3895 50.9624 17.1203 50.9624 17.1203V17.1203Z" fill="black"/>
<path opacity="0.993467" d="M71.7648 46.2221C71.7648 46.2221 75.1062 58.1863 71.1721 63.1983C71.1721 63.1983 71.7648 65.5155 70.4175 67.9947C70.2019 69.0723 69.9323 70.0425 69.7709 71.1202C69.0703 75.5932 67.8844 77.4795 67.5611 84.647L64.3274 84.5933C64.3274 84.5933 63.9501 79.4196 62.8184 76.6711C62.1721 75.1085 59.6387 73.0064 59.7469 70.9048C59.8546 69.2879 60.1779 67.9407 62.9267 65.7849C63.142 62.6593 60.0162 59.695 60.5015 48.0543L71.7648 46.2221Z" fill="black"/>
<path opacity="0.993467" d="M70.7948 45.7369C71.6571 51.2338 73.651 59.3716 70.0402 63.3594C70.2016 64.114 70.3096 65.1919 70.094 66.4312C69.9863 67.0779 69.7706 67.7785 69.5013 68.5328C68.9623 69.8264 68.7467 71.7126 68.585 72.8442C67.8844 77.3173 67.8844 77.5332 67.5611 84.7007L64.3274 84.6467C64.3274 84.6467 63.9501 79.4731 62.8184 76.7249C62.1721 75.162 60.8245 73.8147 60.7169 71.7129C60.6092 70.0963 61.7408 66.8628 64.4356 66.9705C64.2739 60.4495 61.2558 61.7428 60.4475 48.162L70.7948 45.7369Z" fill="#EFEFEF"/>
<path opacity="0.993467" d="M50.9624 17.1203C50.9624 17.1203 52.148 17.4976 53.4413 17.6053C54.7349 17.713 56.1361 17.6053 57.3754 17.5513C59.9622 17.3359 63.627 17.0663 66.0522 18.4676C66.0522 18.4676 67.3994 18.0363 68.8546 18.144C69.5013 18.198 70.1482 18.7369 70.9025 18.9526C73.2737 19.5452 75.5372 23.4793 74.513 27.0364C74.4053 27.306 73.6507 27.0364 72.7884 27.306C72.9498 28.0606 73.0581 29.7851 72.1955 31.6174C71.2795 33.4499 70.0939 35.8211 70.3093 40.3481C64.6507 40.0785 62.1178 39.7014 56.5129 39.4318C56.0279 37.4377 55.7043 35.4438 55.6506 34.4198C56.4052 34.0425 56.8359 33.7195 57.4291 33.0726C55.8125 33.3422 55.1656 33.2342 54.1954 32.6953C53.2254 32.1563 51.5009 30.4318 50.6386 29.3001C50.5309 29.1922 49.9382 30.9705 48.591 31.0247C48.1057 30.3241 50.1536 28.3299 49.7763 27.5756C48.4293 24.8268 50.9624 17.1203 50.9624 17.1203V17.1203Z" fill="#EFEFEF"/>
<path opacity="0.993467" d="M71.2256 41.2638C71.2256 41.2638 71.3333 43.204 71.3333 43.689C71.3333 44.2279 71.7645 45.8445 71.8182 46.5991C71.2256 47.6231 68.6387 49.9406 63.9501 50.8028C59.3153 51.7728 53.1717 44.4975 53.1717 44.4975C53.3334 43.7969 53.8723 41.7488 54.2496 40.6711C54.3036 40.5635 54.4113 40.2938 54.4113 40.1862C54.8965 39.4855 71.2256 41.2638 71.2256 41.2638V41.2638Z" fill="black"/>
<path opacity="0.993467" d="M70.0402 41.4257C70.0402 42.773 70.2556 43.7432 70.4175 44.6055C70.6869 46.1684 71.1179 47.1923 71.1179 48.2163C71.1179 51.3418 67.0221 50.8028 63.5728 50.9108C58.9381 51.881 55.004 44.6055 55.004 44.6055C55.3273 43.3659 55.5429 41.965 56.0279 40.7791C56.0816 40.1325 56.1896 39.3242 56.2433 38.9469C62.8182 38.9469 67.4529 39.3242 70.1477 39.5932C70.2556 40.1862 70.1479 41.2101 70.0402 41.4257V41.4257Z" fill="#EFEFEF"/>
<path opacity="0.993467" d="M64.8663 48.3777C64.8663 48.3777 62.0101 42.0184 53.4411 43.9049C51.3935 49.6712 48.6447 56.3001 50.4232 63.4676C48.6447 65.8928 46.5968 67.2403 46.5968 71.7131C46.5968 76.1862 46.8125 76.9408 46.8125 76.9408L53.1178 77.2643C53.1178 77.2643 55.1656 74.6238 55.9739 71.7674C56.1896 70.9588 56.4052 69.5039 56.2435 67.8333C56.4589 67.51 57.3752 66.7556 57.4831 65.3004C57.4831 65.3004 60.5549 63.6838 62.3335 59.7497C64.0043 56.1921 63.573 53.1203 64.8663 48.3777V48.3777Z" fill="black"/>
<path opacity="0.993467" d="M64.8663 48.3777C64.7049 47.785 62.5491 41.9647 54.5729 43.689C49.8845 56.1921 51.6091 61.3658 52.3094 63.629C49.1297 67.6708 47.6747 68.5331 48.3216 76.7248H52.5253C54.4653 73.653 54.8965 72.5211 55.0042 68.4794C55.0042 68.3177 54.4115 68.8027 53.9803 69.3417C54.3039 67.6711 55.2198 67.3478 55.9205 66.3238C56.2438 65.8925 56.5131 65.2459 56.5131 64.3836C60.2856 61.8508 61.6868 58.671 62.4951 55.3836C63.142 53.1203 63.8963 49.4016 64.8663 48.3777V48.3777Z" fill="#EFEFEF"/>
<path opacity="0.993467" d="M51.5551 39.7012C51.5551 39.7012 53.0103 39.7549 54.3039 40.1862C55.5434 40.6172 55.5435 40.8865 56.0284 41.4257C56.5134 41.965 57.699 42.773 57.4836 43.5813C57.3757 44.0126 57.1063 44.1203 56.729 44.4976C56.5674 44.6592 55.3815 45.9525 55.1122 46.1142C54.9505 46.2218 54.7349 46.3838 54.5732 46.4915C54.4118 46.5991 53.9268 46.9227 53.7649 47.0304C53.226 47.3 52.8487 47.4617 52.256 47.4077C52.256 47.4077 50.9087 47.3537 50.0462 46.4377C50.0462 46.4377 49.9385 46.0065 50.1542 45.7911C50.1542 45.7911 49.0223 44.8209 48.6989 44.1742C48.3754 43.5279 48.3754 42.6116 48.5913 42.1266C48.6989 41.6411 50.8005 40.2938 51.5551 39.7012V39.7012Z" fill="black"/>
<path opacity="0.993467" d="M52.9026 92.1382L52.741 93.4857C52.741 93.4857 52.256 94.0784 48.6452 94.0246C44.9805 93.9707 44.0105 92.839 43.6872 92.2461L43.4718 90.8449C43.4718 90.8449 44.1724 89.8209 44.3341 89.8209C45.5197 89.9286 49.5617 91.5455 52.3642 91.9765C52.633 91.9765 52.6867 92.0842 52.9026 92.1382Z" fill="black"/>
<path opacity="0.993467" d="M60.7168 89.3897C60.7168 89.9823 60.6629 89.9823 60.6629 90.5753C61.3095 91.0603 62.9266 91.3299 65.9982 91.2756C70.4712 91.1679 74.621 92.6231 79.6867 91.7606L79.7407 90.7906L79.2557 90.7369L61.3095 89.2817L60.7168 89.3897Z" fill="black"/>
<path opacity="0.993467" d="M64.6509 91.2759C65.0822 91.2759 65.5132 91.2759 65.9982 91.2759C68.9086 91.1682 71.6571 91.8148 74.621 91.9765C76.1839 91.9225 78.124 91.5452 77.9624 90.4136L62.657 89.1201C61.7408 90.144 62.4411 91.0063 64.6509 91.2759Z" fill="black"/>
<path opacity="0.993467" d="M47.0821 68.5873C47.567 68.9107 50.8545 70.8508 56.1898 70.5812C56.0819 71.6052 56.1358 73.5993 53.7646 77.1022C52.579 78.8267 51.5548 81.8448 51.3395 85.6712C51.3934 86.5335 51.8784 87.2878 51.2318 88.4197C51.4472 89.1201 52.3094 90.5213 52.7407 91.3836C53.1717 92.2461 53.3873 93.2161 50.5309 93.2701C47.6208 93.3238 42.9321 93.0004 43.579 90.7372C43.9026 89.5516 44.8185 88.312 44.9265 87.8268C45.0342 87.3418 45.0342 85.8869 45.9502 84.9166C46.7587 82.2221 46.4891 79.6353 46.3277 77.2101C46.0581 74.677 46.0041 70.6352 47.0821 68.5873V68.5873Z" fill="black"/>
<path opacity="0.993467" d="M52.0941 24.6652C55.9205 19.5452 52.6867 15.4497 46.5434 16.689C44.0642 17.174 41.5854 18.8988 41.4234 22.0244C40.6151 22.1321 38.7829 22.2397 37.8666 25.5812C37.1663 28.168 36.789 28.653 35.5492 29.9463C34.7408 30.8625 35.6031 32.7487 36.1958 34.0962C38.19 38.731 44.3336 39.162 48.4833 42.665C49.8845 42.2877 51.3395 40.7251 51.7708 39.7012C48.2677 35.5512 49.022 33.9346 47.6208 31.779C49.13 31.2398 52.5791 29.1382 52.0941 24.6652Z" fill="black"/>
<path opacity="0.993467" d="M51.3395 24.3419C51.5549 24.0183 51.9322 23.3179 52.0941 23.0483C52.1481 22.9943 52.7407 24.0183 52.7947 23.9646C54.2496 21.5931 54.6269 18.144 52.9561 17.8207C52.5788 17.7667 51.8784 17.6053 51.2855 17.3894C50.2079 17.0121 49.2379 17.0121 47.5131 17.3357C45.1419 17.7667 42.7707 19.4913 42.7707 21.9704C42.7707 22.1321 44.441 22.617 44.9263 24.6112C44.1177 23.4793 42.7165 22.2397 41.0459 23.3177C39.2673 24.4493 40.1836 27.0361 37.8124 29.7306C37.0038 30.6469 37.1118 31.7248 37.9738 33.8803C39.375 37.2757 46.0039 39.108 49.6147 42.3415C50.477 41.9642 51.0696 41.1019 51.5009 40.4552C49.0757 37.9224 48.1055 35.5509 47.4051 33.8264C46.5429 31.8325 45.5726 30.7009 43.6864 29.1914C44.6566 29.5687 45.4112 29.946 45.842 30.2693C46.327 30.5926 47.0276 30.6466 47.6745 30.431C49.9922 29.6232 51.2318 26.3895 51.3395 24.3419V24.3419Z" fill="#EFEFEF"/>
<path opacity="0.993467" d="M74.7826 25.2041C74.6209 27.252 73.112 26.2281 72.3037 25.8508C70.6869 25.1502 69.07 24.6652 67.1838 24.6652C65.2976 24.6652 62.8724 24.8268 60.7708 25.3658C57.8606 26.1741 56.9981 26.1204 55.7048 25.4735C54.4115 24.7729 52.1483 23.0483 52.1483 23.0483C52.1483 23.0483 52.0943 23.5873 52.6333 24.2879C53.3336 25.1502 54.8968 26.2281 56.9984 26.9284C58.0223 27.252 58.8309 27.0361 59.7471 26.8207C64.5435 25.6351 69.6092 25.4195 73.8666 28.0063C74.0823 28.114 74.8368 27.7907 75.1602 27.3057C75.5909 26.6054 74.7826 25.2041 74.7826 25.2041V25.2041Z" fill="black"/>
<path opacity="0.993467" d="M50.2618 45.7369C50.6928 46.0065 51.2318 46.1681 51.8245 46.6531C51.8245 46.6531 51.3395 46.6531 51.1241 46.4377C50.8545 46.2761 50.3156 45.7911 50.2618 45.7369V45.7369Z" fill="#001423"/>
<path opacity="0.993467" d="M65.8365 3.00056C65.6749 2.51558 64.489 1.65304 61.7408 1.65304C58.7767 1.65304 57.9144 2.56929 57.8607 3.05427C57.8607 3.21593 57.645 4.94075 57.5911 5.64111C57.5911 5.64111 57.5911 6.50338 57.6448 7.79667C57.6987 8.65894 57.9144 9.14392 58.0221 10.2758C58.1298 11.4611 58.4533 12.2157 59.046 13.186C59.3156 13.3474 59.531 13.5093 59.8006 13.5633C60.8785 13.7786 62.7647 13.8326 63.7887 13.5633C64.3813 13.4016 65.1359 12.3777 65.2976 11.4614C65.513 10.3298 65.7286 9.52122 65.7826 8.82087C65.8902 8.12052 65.9442 6.55736 65.9979 6.12609C66.1599 4.94076 65.8902 3.10825 65.8365 3.00056V3.00056Z" fill="#EFEFEF"/>
<path opacity="0.993467" d="M60.1779 69.6113C60.1779 69.6113 63.0343 70.8508 70.0942 69.7729C70.0942 69.7729 68.1003 79.7969 69.0165 84.8087C69.0165 84.8087 69.9325 86.1022 76.7231 88.5811C76.7231 88.5811 79.7409 89.3357 79.6332 90.8449C79.6332 90.8449 79.7409 91.1682 76.0764 91.0603C72.4119 90.9523 68.9626 90.3056 66.5374 90.3056C64.1122 90.3056 61.5254 90.4133 61.0944 89.713C60.6094 89.0663 61.2021 87.3955 61.9027 86.4253C62.6575 85.4016 62.4416 84.6468 62.3879 82.8148C62.2257 78.0184 58.561 73.0604 60.1779 69.6113V69.6113Z" fill="black"/>
<path opacity="0.993467" d="M59.585 70.5275C59.2077 71.0665 59.6387 73.1141 60.1776 75.1083C60.7166 77.1022 61.9024 78.288 62.1718 81.5752C62.4411 84.8087 62.4951 85.2399 61.5789 87.1259C60.6626 89.0118 60.3933 90.7367 63.5728 90.7906C66.7523 90.8446 68.4771 90.7367 71.7105 91.2219C74.9443 91.7069 76.0759 91.8686 77.8544 91.5992C79.633 91.3299 80.01 90.7367 79.2557 90.198C78.5011 89.659 75.3753 89.0664 74.028 87.9882C72.7345 87.0182 69.07 85.4013 69.0163 84.9703C68.8546 83.5151 68.8007 78.2338 69.07 76.5092C69.3396 74.7844 69.7167 72.3055 69.8246 71.6589C69.9326 71.0122 70.4712 70.3653 69.555 70.581C68.639 70.7963 65.1899 71.2816 62.6031 71.1199C60.0162 70.9585 59.7469 70.3656 59.585 70.5275V70.5275Z" fill="#88CE02"/>
<path opacity="0.3" d="M61.4175 87.1801C62.3334 87.6111 63.681 87.9347 64.7049 87.9347C64.7049 87.9347 64.3273 89.7133 64.9203 90.7909C65.5129 91.8688 60.6089 91.2222 60.6089 91.2222L60.3935 87.3958L61.4175 87.1801Z" fill="black"/>
<path opacity="0.3" d="M75.6989 91.8148C76.5611 91.5452 77.1541 90.5753 76.4535 89.6593C75.6989 88.743 75.0522 88.5814 76.0222 88.5277C76.9924 88.4737 80.5492 90.6292 80.5492 90.6292L78.7167 92.2998L75.6989 91.8148Z" fill="black"/>
<path opacity="0.3" d="M59.4233 72.6291C60.6629 73.0604 62.5491 73.1681 64.166 73.1141C65.7826 73.0604 68.2077 72.8445 69.7709 72.3058C71.3335 71.7668 70.6869 72.8985 70.6869 72.8985L69.8246 73.707C69.8246 73.707 67.7767 74.5153 64.4356 74.4616C60.5015 74.4076 59.3156 73.9766 59.3156 73.9766L59.4233 72.6291Z" fill="black"/>
<path opacity="0.3" d="M59.531 75.3239C60.7708 75.7552 62.6568 75.8628 64.2736 75.8089C65.8902 75.7552 68.0461 75.7552 69.609 75.1622C70.2556 74.9469 69.8786 75.8628 69.8786 75.8628L69.609 76.3478C69.609 76.3478 67.5071 77.1024 64.2197 77.0482C60.2856 76.9945 59.585 76.6709 59.585 76.6709L59.531 75.3239Z" fill="black"/>
<path opacity="0.993467" d="M55.9742 37.5456C55.9742 37.9229 60.1779 40.0245 62.4951 40.4558C64.8126 40.8868 69.6629 40.4558 70.4173 40.2941L70.3093 41.0487C70.3093 41.0487 64.543 41.911 60.1239 40.7254C55.7046 39.5398 56.1898 39.2702 56.1898 39.2702L55.9742 37.5456Z" fill="black"/>
<g opacity="0.993467">
<path opacity="0.993467" d="M46.9741 83.5154C47.6208 83.839 49.9382 84.4316 51.4472 84.1083C51.6625 84.0543 51.4472 80.3896 52.0401 78.719C52.9024 76.4015 54.3036 74.5153 54.95 70.4198C52.6865 70.2042 50.0999 69.6113 48.7524 69.18C47.0281 74.4616 47.621 78.9884 46.9741 83.5154Z" fill="#EFEFEF"/>
<path opacity="0.993467" d="M50.5852 86.9108C50.9625 87.0185 51.2318 87.4495 51.3397 87.1804C51.5551 86.6952 50.9625 85.7792 50.9085 85.1325C50.9085 85.0785 50.9085 85.1325 50.9085 85.0785C50.4235 84.6475 47.136 84.5936 47.3517 84.8089C46.9744 85.5096 46.3817 85.4019 46.1663 86.8031C46.0587 87.5035 46.9209 86.9108 47.729 86.8568C46.274 87.8268 44.6035 89.0666 44.3338 90.1443C44.0105 91.6532 44.5495 92.0844 46.1663 92.893C47.5676 93.2163 49.2382 93.2703 50.5314 93.2163C51.9867 92.9467 52.2563 92.2464 51.825 91.2761C51.1778 89.8209 50.7468 87.9347 50.5852 86.9108Z" fill="#EFEFEF"/>
</g>
<path opacity="0.993467" d="M51.1778 16.9047C52.9563 17.9286 55.4355 17.6593 56.3515 17.6053C56.5671 17.6053 58.7229 17.228 58.8306 17.2817C59.046 17.3357 59.046 17.4974 59.046 17.4974C59.046 17.4974 58.2377 17.9284 56.4054 18.036C54.6809 18.1437 52.633 18.036 51.5014 17.4974C50.1539 16.9047 51.1778 16.9047 51.1778 16.9047Z" fill="black"/>
<path opacity="0.993467" d="M69.5013 17.9286C69.8246 18.144 71.9264 18.9526 72.8427 19.9225C73.651 20.7851 73.22 20.7311 73.0581 20.5154C72.8427 20.2458 71.1719 19.1142 70.5252 18.8449C69.8786 18.5755 69.07 18.0903 69.07 17.9826C69.07 17.8749 69.5013 17.9286 69.5013 17.9286V17.9286Z" fill="black"/>
<path opacity="0.993467" d="M50.9082 40.2939C52.4711 40.1862 54.088 40.5635 55.1119 41.6411C55.6509 42.1801 56.5131 42.7727 56.4055 43.3117C56.4055 43.4733 56.0819 43.9046 55.8128 44.2279C55.6511 44.4433 55.1661 44.9283 55.0042 45.0902C54.7888 45.2519 54.0343 45.8448 53.8726 45.9525C53.7109 46.0604 53.4953 46.3301 53.3336 46.3838C52.7949 46.6534 52.202 46.4377 51.6631 46.1684C51.1244 45.8988 51.771 45.8448 51.1781 45.4138C49.7231 44.3899 48.9146 43.689 49.5075 41.6951C49.5612 41.3178 50.1539 40.8865 50.9082 40.2939V40.2939Z" fill="#EFEFEF"/>
</g>
<path opacity="0.4" d="M37.166 27.9526C32.3157 29.8928 19.9742 36.0367 16.4713 37.9229C19.3815 39.7552 20.7288 44.1742 21.16 48.6473C21.2137 49.0785 21.2677 49.4558 21.3217 49.8868C21.3754 50.2641 21.4294 50.5335 21.4831 50.6954C21.4831 50.7494 21.4831 50.8571 21.5371 50.9108C24.7168 42.2343 36.0878 33.0726 36.5191 32.372C36.7345 32.0486 36.2495 30.6474 37.0041 29.3004C37.9743 27.5753 39.8608 26.8207 37.166 27.9526V27.9526Z" fill="black"/>
<path opacity="0.4" d="M48.6989 68.6413C51.1778 63.6833 51.2318 58.9406 51.1778 53.3897C51.1778 51.0722 52.8484 47.7847 51.9864 48.701C48.7526 52.3115 40.6151 59.1023 34.7408 59.4793C42.9863 59.21 46.2198 63.3597 48.6989 68.6413Z" fill="black"/>
<path opacity="0.993467" d="M11.7287 42.5034C14.8005 40.2938 30.6988 31.833 34.5252 30.6471C38.3513 29.4076 37.1657 27.9524 37.1657 27.9524C37.1657 27.9524 21.6448 34.6349 12.3753 40.4015" fill="black"/>
<path opacity="0.4" d="M56.9981 26.9287C55.7585 26.4437 54.7886 27.8989 55.1119 29.3001C55.4355 30.7014 58.3456 32.264 58.1837 37.384C58.076 41.5877 57.1598 43.312 57.1598 43.312L55.1119 40.7254C55.1119 40.7254 54.7886 34.9048 54.088 34.0425C53.3876 33.1803 51.1778 31.6174 50.3155 30.8091C49.4533 30.0005 51.2855 28.9229 51.1778 27.4137C51.0701 25.9587 52.0941 23.0486 52.0941 23.0486L56.9981 26.9287Z" fill="black"/>
<path opacity="0.4" d="M64.4893 49.8866C64.3816 53.9284 65.2978 59.9106 65.6749 62.767C66.0522 65.6232 66.5371 65.8388 65.6749 67.1324C64.8126 68.372 63.681 70.4198 63.681 70.4198L59.9622 70.0962C59.9622 70.0962 62.9264 66.3238 63.0878 65.6232C63.2494 64.9229 61.5789 59.5875 61.5789 59.5875L64.4893 49.8866Z" fill="black"/>
<path opacity="0.4" d="M57.3217 12.1623C58.0763 13.8326 58.9923 14.5872 60.4472 15.0724C61.3095 15.3958 64.7046 15.827 66.0521 14.3179C66.6448 13.6172 66.2675 11.731 66.2675 11.731L63.1957 14.2099L59.046 13.4556L58.561 12.216L57.3217 12.1623Z" fill="black"/>
<g opacity="0.993467">
<path d="M57.6448 15.8807C59.046 16.797 62.5491 17.6593 63.519 17.8209C64.489 18.0363 66.0519 16.797 66.8065 16.4737C67.615 16.0964 69.0163 15.8807 70.6329 17.3359C70.7945 17.4976 70.2556 18.1982 70.2556 18.1982C70.2016 18.1443 69.8783 18.1443 69.447 17.9286C69.016 17.7133 68.6387 17.5513 67.9921 17.6053C65.2973 17.9286 64.8663 18.8449 62.4951 18.3056C60.1239 17.7664 59.531 17.3357 57.2137 17.4434" fill="#88CE02"/>
<path d="M57.6448 15.8807C59.046 16.797 62.5491 17.6593 63.519 17.8209C64.489 18.0363 66.0519 16.797 66.8065 16.4737C67.615 16.0964 69.0163 15.8807 70.6329 17.3359C70.7945 17.4976 70.2556 18.1982 70.2556 18.1982C70.2016 18.1443 69.8783 18.1443 69.447 17.9286C69.016 17.7133 68.6387 17.5513 67.9921 17.6053C65.2973 17.9286 64.8663 18.8449 62.4951 18.3056C60.1239 17.7664 59.531 17.3357 57.2137 17.4434" stroke="black" stroke-width="0.419629" stroke-miterlimit="10" stroke-linejoin="round"/>
</g>
<path opacity="0.993467" d="M57.1598 16.0424C58.9383 16.797 62.3874 17.6053 63.3574 17.8209C64.3273 18.0366 65.8902 17.0663 66.6448 16.5814C67.9923 15.7191 69.7166 16.4197 70.5252 17.336C71.0639 17.9286 71.2798 18.3059 71.2798 18.4676C71.2798 18.6829 70.6331 18.4676 70.6331 18.4676C70.2558 18.3059 69.8246 18.2522 69.5015 18.0363C69.0702 17.8209 68.639 17.4976 67.9926 17.5513C65.2978 17.8749 64.7589 18.7909 62.4416 18.2519C60.1244 17.713 59.5315 17.228 57.0526 17.3894" fill="#88CE02"/>
<path opacity="0.993467" d="M48.8066 66.3775C48.6989 66.2698 48.9143 66.1622 48.8066 66.1622C48.1063 66.1622 47.136 65.6232 46.5968 64.8686C44.2796 61.5275 40.8842 59.3179 34.7406 59.4796C25.5249 59.695 21.8601 55.9228 21.1598 48.7013C20.7825 44.7672 19.7046 40.9408 17.495 38.7849L16.2015 39.5935C18.6804 41.7491 19.4889 45.2521 20.0279 50.0485C20.8902 57.27 26.7105 60.6115 33.501 60.7192C40.5609 60.8268 43.0937 62.282 45.7343 65.8391C46.5965 66.9707 47.5668 67.348 48.3211 67.5097L48.8066 66.3775Z" fill="black"/>
<path opacity="0.4" d="M73.8127 31.7251C73.9743 32.5334 74.4053 34.0963 75.2676 34.8506C75.6452 35.2279 75.6989 35.3356 75.3755 35.3356C75.052 35.3356 72.6808 35.2279 72.6808 35.2279L72.0341 34.0963L73.8127 31.7251Z" fill="black"/>
</g>
</g>
</g>
</g>
<defs>
<clipPath id="clip0">
<rect width="83" height="95" fill="white"/>
</clipPath>
</defs>
</svg>
