<svg width="146" height="161" viewBox="0 0 146 161" fill="none" xmlns="http://www.w3.org/2000/svg">
<path fill-rule="evenodd" clip-rule="evenodd" d="M71.1777 0.02242C66.7585 0.139995 61.6614 0.985275 56.9976 2.37368C56.5871 2.4958 55.8595 2.70365 55.3806 2.83563C51.7283 3.84173 44.892 7.28378 40.935 10.1089C37.1221 12.8311 31.2353 18.3002 29.2593 20.9559C28.7421 21.6512 28.1082 22.4477 27.8513 22.7259C27.3137 23.3072 24.5326 27.3222 24.5326 27.5169C24.5326 27.5882 24.1619 28.2461 23.7087 28.9791C20.1069 34.8038 17.4746 42.5885 16.2902 50.9187C15.8959 53.6922 15.9059 64.1706 16.3049 66.4927C18.0904 76.8803 21.1085 84.5708 26.4663 92.3862C28.7645 95.7384 29.7621 96.942 32.8367 100.072C38.053 105.382 43.9992 109.424 51.4455 112.722C53.9942 113.85 59.3179 115.402 63.0926 116.116C67.8016 117.007 76.2325 117.283 80.0652 116.672C81.0605 116.513 82.6586 116.262 83.6164 116.113C85.4051 115.835 89.944 114.758 90.8308 114.401C91.1045 114.291 91.9441 113.997 92.6967 113.748C96.1735 112.598 101.529 109.87 105.26 107.347C115.515 100.414 123.094 90.7426 127.432 79.0536C130.006 72.1189 130.988 66.4735 131 58.5333C131.004 55.6986 130.89 52.6264 130.746 51.7063C130.602 50.7864 130.36 49.2372 130.209 48.2638C129.025 40.6332 125.524 32.0912 120.571 24.7487C117.657 20.4295 112.087 14.597 108.022 11.6085C107.46 11.1956 106.945 10.7895 106.877 10.7056C106.245 9.93163 97.9761 5.3123 95.5576 4.38181C95.2839 4.27663 94.3323 3.90544 93.443 3.55702C87.1522 1.09248 79.0842 -0.188204 71.1777 0.02242ZM77.6458 8.54929C81.0996 8.92528 81.0302 8.9134 84.2383 9.68232C88.1588 10.6219 93.0696 12.4983 96.0168 14.1828C96.8166 14.64 97.5276 15.0139 97.5967 15.0139C98.0863 15.0139 104.48 19.681 106.504 21.5155C112.366 26.8299 117.207 33.8017 119.545 40.299C119.72 40.7857 119.961 41.4115 120.081 41.6896C120.701 43.1291 121.697 47.4642 122.055 50.2866C122.758 55.8126 122.84 57.1317 122.704 60.7798C122.484 66.6778 121.324 72.149 119.246 77.0887C118.241 79.4774 115.853 84.079 114.973 85.3248C114.488 86.0105 114.091 86.627 114.091 86.6947C114.091 86.7622 113.933 87.0181 113.739 87.2631C113.546 87.5079 112.495 88.8462 111.403 90.2369C107.213 95.5764 101.723 100.094 95.5424 103.289C93.7721 104.204 91.9317 105.095 91.4528 105.269C90.9739 105.443 90.3582 105.676 90.0845 105.786C88.1361 106.572 84.1749 107.553 80.7555 108.098C78.1255 108.518 67.8964 108.527 65.7047 108.113C62.8152 107.566 58.5624 106.432 56.9976 105.791C56.7239 105.678 55.8843 105.335 55.1318 105.027C39.3682 98.586 27.5047 83.5829 24.7791 66.6419C24.3674 64.0826 24.3433 52.5063 24.7456 50.5394C25.4757 46.9704 26.4813 43.0598 27.0213 41.6896C28.3376 38.351 28.7329 37.4281 29.4051 36.1269C32.2824 30.5569 34.7649 27.1153 38.9742 22.8619C43.8788 17.9058 49.3615 14.2523 55.392 11.9216C61.5031 9.55943 64.469 8.81605 69.1875 8.46307C73.2813 8.15662 74.12 8.16521 77.6458 8.54929ZM90.453 29.5569C84.6943 34.2361 82.2335 36.2614 81.9994 36.5138C81.931 36.5876 80.2517 38.0059 78.2678 39.6653C76.2838 41.3245 74.5344 42.8004 74.3802 42.9445C74.2262 43.0887 72.3325 44.6859 70.1724 46.4938C68.0121 48.3017 64.7797 51.0325 62.9893 52.5622L59.7341 55.3436L61.2268 55.5056C62.0477 55.5949 65.8629 55.6804 69.7052 55.6953L76.6908 55.7228L78.8181 52.499C82.2904 47.2362 94.815 27.9073 96.021 25.9497C96.3852 25.3585 96.5778 24.8751 96.4487 24.8751C96.3195 24.8751 93.6216 26.9818 90.453 29.5569ZM70.1707 61.4623C70.0274 61.5738 68.4758 63.8836 66.7229 66.5954C64.9698 69.3072 63.3336 71.8104 63.0871 72.1581C62.8403 72.5058 61.9888 73.8143 61.1949 75.0659C60.4008 76.3175 57.6765 80.5275 55.1405 84.4214C50.7969 91.0908 50.1705 92.1333 50.5068 92.1333C50.6573 92.1333 58.2726 86.0717 60.2521 84.3761C60.925 83.7996 63.0988 81.9889 65.0828 80.3522C67.0667 78.7153 69.1445 76.9701 69.6997 76.474C70.2553 75.9777 72.4865 74.0924 74.6583 72.2845C76.8301 70.4767 79.0624 68.5957 79.6191 68.1049C80.1756 67.6139 81.1909 66.7643 81.875 66.2171C82.5591 65.6697 83.1748 65.1612 83.2432 65.0869C83.3117 65.0126 83.9274 64.4985 84.6115 63.9445C86.5601 62.3665 87.09 61.8241 86.886 61.6168C86.6296 61.3558 70.4993 61.2069 70.1707 61.4623Z" fill="black"/>
<path fill-rule="evenodd" clip-rule="evenodd" d="M56.6839 131.105C56.6253 131.162 56.5774 137.762 56.5774 145.771C56.5774 157.993 56.613 160.362 56.7987 160.514C56.9489 160.636 57.7589 160.681 59.3145 160.651L61.6088 160.607L61.6887 157.147C61.7767 153.334 61.6836 153.695 62.9392 152.289C63.4046 151.768 63.9249 151.663 63.9249 152.091C63.9249 152.183 64.027 152.369 64.1517 152.506C64.2765 152.642 65.3942 154.309 66.6358 156.209C67.8774 158.11 69.099 159.895 69.3504 160.175L69.8075 160.686L72.5766 160.683C74.0995 160.682 75.448 160.617 75.5736 160.539C75.8084 160.393 75.702 160.215 73.9878 157.88C73.6803 157.461 72.7486 156.172 71.9172 155.015C71.0859 153.858 70.3131 152.817 70.2002 152.703C70.0871 152.589 69.9946 152.443 69.9946 152.38C69.9946 152.316 69.866 152.126 69.7087 151.959C69.2749 151.497 67.2789 148.644 67.2819 148.491C67.2835 148.417 67.7081 147.906 68.2254 147.356C71.569 143.8 74.3946 140.677 74.4387 140.488C74.4817 140.304 73.9861 140.267 71.4837 140.267L68.4772 140.267L67.9136 141.013C67.6038 141.423 66.5909 142.749 65.6627 143.958C62.9112 147.543 62.4873 148.117 62.4873 148.255C62.4873 148.327 62.3525 148.506 62.1877 148.652C61.9131 148.897 61.8796 148.898 61.7884 148.664C61.7336 148.524 61.6887 144.492 61.6887 139.704V131H59.2396C57.8924 131 56.7423 131.047 56.6839 131.105ZM118.517 132.108C117.133 132.827 116.655 134.689 117.513 136.025C118.063 136.882 118.722 137.193 119.99 137.195C121.214 137.197 122.005 136.779 122.538 135.848C123.226 134.645 122.713 132.823 121.495 132.141C120.683 131.687 119.356 131.672 118.517 132.108ZM100.263 134.872C99.3847 135.087 98.4088 135.317 98.0946 135.383C97.1364 135.584 97.1485 135.552 97.1485 137.913V140.096L96.6294 140.182C96.344 140.229 95.679 140.285 95.1519 140.307L94.1935 140.346L94.1479 142.061C94.1143 143.327 94.156 143.809 94.3076 143.904C94.4207 143.974 95.1008 144.033 95.8193 144.034L97.1255 144.037L97.1851 150.201C97.2458 156.49 97.2535 156.573 97.902 158C98.2425 158.749 99.3312 159.867 100.092 160.249C100.892 160.65 102.564 161.003 103.618 160.992C104.795 160.979 106.745 160.602 106.918 160.353C107.001 160.234 107.03 159.677 106.982 159.115C106.934 158.554 106.894 157.77 106.893 157.374L106.892 156.654L105.607 156.727C103.866 156.826 103.217 156.545 102.662 155.449L102.26 154.655V149.346V144.037L104.536 144.034C105.788 144.033 106.904 143.974 107.018 143.904C107.169 143.809 107.211 143.327 107.177 142.061L107.132 140.346L104.736 140.267L102.34 140.188L102.26 137.374C102.212 135.695 102.116 134.544 102.02 134.521C101.932 134.5 101.142 134.658 100.263 134.872ZM5.87264 140.037C3.63803 140.594 1.9767 141.815 1.1164 143.533C0.680335 144.403 0.582906 144.796 0.536425 145.869C0.487388 147.001 0.532584 147.272 0.904752 148.072C1.38697 149.108 1.84604 149.635 2.98826 150.463C3.81502 151.063 4.18846 151.253 5.94325 151.97C8.67222 153.084 9.15715 153.427 9.44866 154.451C9.70071 155.337 9.41623 156.063 8.56807 156.699C7.98187 157.139 7.91096 157.152 6.11528 157.146C4.25364 157.14 3.1951 156.906 1.73598 156.177C0.971356 155.796 0.853321 155.944 0.336278 157.937C0.24667 158.283 0.113461 158.756 0.0401451 158.99C-0.127251 159.524 0.184538 159.748 1.824 160.272C3.68244 160.865 5.94469 161.087 7.71465 160.849C11.0062 160.407 12.9732 159.244 14.0386 157.111C14.4413 156.304 14.4888 156.044 14.4886 154.639C14.4884 153.229 14.4421 152.977 14.0358 152.175C13.5265 151.171 12.8137 150.388 11.8126 149.732C10.9803 149.188 10.7754 149.09 8.59236 148.2C7.63334 147.81 6.61139 147.312 6.32133 147.094C5.1954 146.25 5.25466 144.699 6.4424 143.926C7.00529 143.56 7.21949 143.518 8.47927 143.528C9.84926 143.539 10.8079 143.736 12.0701 144.267C12.4091 144.409 12.7059 144.504 12.7295 144.478C12.8388 144.355 13.6102 141.507 13.6102 141.226C13.6102 140.228 8.35116 139.419 5.87264 140.037ZM24.4718 139.904C20.6802 140.527 17.706 142.925 16.5215 146.314C16.0127 147.77 15.8464 148.787 15.8464 150.445C15.8464 153.471 16.7262 155.947 18.467 157.82C21.1833 160.742 25.4977 161.723 29.8304 160.403C32.6932 159.531 35.0162 157.291 36.0522 154.403C36.9438 151.918 36.9867 148.824 36.1645 146.314C35.1575 143.24 32.2739 140.703 29.0241 140.032C27.9964 139.82 25.4249 139.748 24.4718 139.904ZM47.0514 139.943C43.5599 140.49 40.687 142.484 39.1749 145.41C37.4669 148.715 37.5528 152.966 39.3931 156.194C40.7591 158.589 43.2587 160.219 46.4045 160.767C48.0731 161.057 49.1276 161.057 51.0007 160.767C53.7284 160.346 54.5806 160.034 54.4249 159.517C54.3712 159.339 54.265 158.805 54.1888 158.33C54.1126 157.855 54.0138 157.36 53.9694 157.23C53.925 157.101 53.8469 156.807 53.796 156.577L53.7033 156.159L52.7046 156.464C51.9736 156.687 51.206 156.772 49.8433 156.781C48.0194 156.794 47.9561 156.783 46.781 156.227C45.0722 155.419 44.0111 154.071 43.481 152.035C43.2751 151.245 43.339 149.158 43.5968 148.248C44.2817 145.83 46.1373 144.221 48.6438 143.872C49.716 143.723 51.7102 143.881 52.4747 144.177C53.5278 144.584 53.5968 144.515 54.0674 142.589C54.5627 140.562 54.6291 140.707 52.9834 140.217C51.895 139.893 48.3997 139.731 47.0514 139.943ZM82.507 140.02C77.8199 141.074 74.7871 145.274 74.7866 150.712C74.7861 155.599 77.3565 159.233 81.6548 160.423C82.8323 160.749 84.4721 161 85.4268 161C87.0607 161 90.0479 160.538 91.558 160.051C92.4257 159.772 92.4363 159.761 92.4193 159.167C92.3913 158.188 92.0613 156.715 91.8157 156.474C91.6179 156.279 91.4737 156.282 90.7341 156.491C87.1044 157.518 83.3521 157.158 81.5449 155.609C80.6247 154.821 79.905 153.416 79.9002 152.4L79.8978 151.89H86.6769C91.9247 151.89 93.4851 151.846 93.5851 151.694C93.6562 151.586 93.7081 150.578 93.7006 149.455C93.6888 147.703 93.6252 147.217 93.2534 146.03C92.2667 142.881 90.7705 141.253 87.8842 140.187C86.8933 139.821 83.8174 139.726 82.507 140.02ZM133.806 139.896C130.593 140.381 127.792 142.313 126.385 145.015C124.966 147.743 124.712 151.425 125.737 154.403C126.67 157.112 128.876 159.355 131.565 160.329C133.376 160.985 135.699 161.158 137.64 160.783C142.105 159.921 144.954 157.076 145.868 152.566C146.12 151.326 145.994 148.218 145.64 146.942C144.746 143.715 142.538 141.384 139.378 140.33C138.34 139.983 137.783 139.902 136.202 139.866C135.148 139.843 134.07 139.856 133.806 139.896ZM117.381 140.372C117.322 140.429 117.274 144.912 117.274 150.334C117.274 159.155 117.301 160.218 117.53 160.443C117.744 160.654 118.154 160.687 120.125 160.651L122.466 160.607L122.507 150.437L122.548 140.267H120.018C118.626 140.267 117.439 140.314 117.381 140.372ZM85.917 143.46C86.8347 143.792 87.7924 144.581 88.1558 145.302C88.5628 146.11 88.8404 147.073 88.8417 147.681C88.8429 148.267 88.5637 148.299 83.891 148.245C80.0045 148.199 79.9773 148.197 79.928 147.856C79.8682 147.443 80.2856 146.181 80.698 145.529C81.8283 143.74 84.1507 142.819 85.917 143.46ZM28.2245 143.964C28.6962 144.184 29.3134 144.622 29.5961 144.939C31.7673 147.37 31.9428 152.476 29.9507 155.249C28.9235 156.679 27.5196 157.34 25.8675 157.171C23.6535 156.946 22.0819 155.335 21.4504 152.645C21.2025 151.589 21.2363 148.918 21.5108 147.882C22.0302 145.922 23.2766 144.31 24.6402 143.837C25.7754 143.443 27.2129 143.494 28.2245 143.964ZM137.779 144.109C138.85 144.744 139.154 145.071 139.728 146.208C140.371 147.48 140.591 148.513 140.593 150.272C140.596 152.746 139.952 154.665 138.687 155.946C137.756 156.89 137.07 157.153 135.557 157.147C134.462 157.143 134.168 157.081 133.561 156.728C132.601 156.171 131.92 155.441 131.393 154.403C130.83 153.296 130.679 152.625 130.58 150.804C130.421 147.889 131.319 145.56 133.071 144.343C133.91 143.761 134.468 143.601 135.732 143.582C136.751 143.567 136.949 143.618 137.779 144.109ZM110.511 154.632C108.477 155.345 107.827 158.117 109.27 159.921C109.721 160.485 110.899 161.001 111.722 160.995C112.654 160.989 113.74 160.41 114.309 159.614C114.91 158.775 115.053 157.41 114.648 156.368C114.037 154.793 112.222 154.032 110.511 154.632Z" fill="black"/>
</svg>
