<svg width="146" height="166" viewBox="0 0 146 166" fill="none" xmlns="http://www.w3.org/2000/svg">
<rect x="15" width="117" height="117" fill="#20DABE"/>
<path fill-rule="evenodd" clip-rule="evenodd" d="M15 26.4712C15 43.4696 15.1021 52.9425 15.2852 52.9425C15.442 52.9425 16.3964 52.5011 17.4058 51.9615C18.4152 51.4218 22.0054 49.5583 25.3837 47.8202C28.7621 46.0825 32.1844 44.3056 32.9887 43.8721C33.7931 43.4386 36.5572 41.9945 39.1312 40.6631C41.7052 39.3316 45.0108 37.6099 46.4771 36.8372C47.9431 36.0647 51.497 34.2213 54.3746 32.7413C61.6163 29.0166 66.3908 26.5359 69.9388 24.6548C71.5996 23.7741 73.0165 23.1116 73.0873 23.1824C73.2441 23.3392 73.4409 39.7028 73.6506 70.0371C73.7372 82.5763 73.8577 92.8851 73.9183 92.9457C74.0654 93.0928 77.5502 91.334 89.295 85.1851C93.0241 83.2326 97.4827 80.9102 102.75 78.1768C104.922 77.0495 108.805 75.0303 111.379 73.6892C119.095 69.6697 124.628 66.812 128.417 64.8897L132 63.0718V31.5359V0H73.5H15V26.4712Z" fill="#F432D4"/>
<path d="M7.43677 158.482V134.854H0V131.675H18.7629V134.854H11.0269V158.482H7.43677Z" fill="black"/>
<path d="M30.8583 158.869C29.0917 158.869 27.5103 158.439 26.1142 157.58C24.7465 156.692 23.6637 155.475 22.8659 153.928C22.0681 152.382 21.6692 150.606 21.6692 148.601C21.6692 146.597 22.0681 144.821 22.8659 143.274C23.6637 141.728 24.7465 140.511 26.1142 139.623C27.5103 138.735 29.0917 138.291 30.8583 138.291C32.6249 138.291 34.192 138.735 35.5597 139.623C36.9559 140.511 38.0529 141.728 38.8507 143.274C39.6485 144.821 40.0474 146.597 40.0474 148.601C40.0474 150.606 39.6485 152.382 38.8507 153.928C38.0529 155.475 36.9559 156.692 35.5597 157.58C34.192 158.439 32.6249 158.869 30.8583 158.869ZM30.8583 155.862C32.4254 155.862 33.7077 155.189 34.7049 153.842C35.7307 152.468 36.2436 150.706 36.2436 148.558C36.2436 146.411 35.7307 144.663 34.7049 143.317C33.7077 141.971 32.4254 141.298 30.8583 141.298C29.2912 141.298 27.9947 141.971 26.969 143.317C25.9717 144.663 25.4731 146.411 25.4731 148.558C25.4731 150.706 25.9717 152.468 26.969 153.842C27.9947 155.189 29.2912 155.862 30.8583 155.862Z" fill="black"/>
<path d="M44.3642 158.482V138.721H47.9971V141.986C48.7379 140.84 49.6497 139.938 50.7324 139.279C51.8152 138.592 53.0119 138.248 54.3226 138.248C55.4053 138.248 56.4026 138.535 57.3144 139.107C58.2262 139.652 58.9385 140.525 59.4514 141.728C59.9928 142.931 60.2635 144.535 60.2635 146.539V158.482H56.6733V146.625C56.6733 144.706 56.3456 143.346 55.6903 142.544C55.0634 141.714 54.2656 141.298 53.2968 141.298C52.499 141.298 51.687 141.527 50.8607 141.986C50.0343 142.444 49.3505 143.103 48.8091 143.962C48.2678 144.821 47.9971 145.823 47.9971 146.969V158.482H44.3642Z" fill="black"/>
<path d="M74.5386 158.912C71.6608 158.912 69.3244 158.038 67.5293 156.291C65.7627 154.516 64.8794 151.981 64.8794 148.687C64.8794 146.482 65.2783 144.606 66.0761 143.06C66.9024 141.484 67.9994 140.296 69.3671 139.494C70.7633 138.663 72.3019 138.248 73.983 138.248C75.4647 138.248 76.8181 138.592 78.0433 139.279C79.297 139.967 80.2801 141.012 80.9924 142.415C81.7332 143.819 82.1036 145.58 82.1036 147.699C82.1036 147.957 82.0894 148.243 82.0609 148.558C82.0609 148.845 82.0466 149.103 82.0181 149.332H68.3841C68.4981 151.652 69.1676 153.341 70.3929 154.401C71.6181 155.461 73.0427 155.99 74.6669 155.99C75.6356 155.99 76.5332 155.833 77.3595 155.518C78.1858 155.174 78.9266 154.644 79.582 153.928L81.548 155.819C79.8384 157.881 77.5019 158.912 74.5386 158.912ZM68.5123 146.539H78.4707C78.4707 144.85 78.0433 143.518 77.1885 142.544C76.3337 141.57 75.194 141.084 73.7693 141.084C72.4871 141.084 71.3474 141.527 70.3501 142.415C69.3529 143.274 68.7402 144.649 68.5123 146.539Z" fill="black"/>
<path d="M94.4555 158.955C93.7147 158.955 93.0736 158.697 92.5322 158.181C91.9908 157.637 91.7201 156.993 91.7201 156.248C91.7201 155.504 91.9908 154.874 92.5322 154.358C93.0736 153.814 93.7147 153.542 94.4555 153.542C95.1963 153.542 95.8232 153.814 96.3361 154.358C96.8774 154.874 97.1481 155.504 97.1481 156.248C97.1481 156.993 96.8774 157.637 96.3361 158.181C95.8232 158.697 95.1963 158.955 94.4555 158.955Z" fill="black"/>
<path d="M113.902 166C112.62 166 111.423 165.757 110.312 165.27C109.229 164.783 108.303 164.067 107.534 163.122L109.543 160.415L109.799 160.072L110.056 160.286C110.113 160.516 110.17 160.73 110.227 160.931C110.312 161.16 110.526 161.446 110.868 161.79C111.238 162.105 111.665 162.363 112.15 162.563C112.663 162.764 113.233 162.864 113.859 162.864C115.085 162.864 116.053 162.449 116.766 161.618C117.507 160.816 117.877 159.513 117.877 157.709V141.685H110.739V138.721H121.595V157.451C121.595 159.484 121.239 161.117 120.527 162.348C119.815 163.609 118.874 164.525 117.706 165.098C116.538 165.699 115.27 166 113.902 166ZM119.458 134.897C118.775 134.897 118.19 134.654 117.706 134.167C117.222 133.68 116.98 133.107 116.98 132.449C116.98 131.761 117.207 131.189 117.663 130.73C118.148 130.243 118.746 130 119.458 130C120.114 130 120.684 130.243 121.168 130.73C121.681 131.217 121.937 131.79 121.937 132.449C121.937 133.107 121.681 133.68 121.168 134.167C120.684 134.654 120.114 134.897 119.458 134.897Z" fill="black"/>
<path d="M137.879 158.912C136.17 158.912 134.588 158.668 133.135 158.181C131.711 157.666 130.428 156.878 129.289 155.819L131.126 152.554L131.383 152.167L131.639 152.339C131.696 152.568 131.768 152.811 131.853 153.069C131.939 153.298 132.138 153.585 132.451 153.928C133.107 154.53 133.862 155.017 134.717 155.389C135.571 155.761 136.654 155.947 137.965 155.947C139.39 155.947 140.501 155.69 141.299 155.174C142.096 154.659 142.495 153.971 142.495 153.112C142.495 152.339 142.125 151.709 141.384 151.222C140.672 150.706 139.432 150.177 137.666 149.632C135.443 149.002 133.677 148.2 132.366 147.227C131.055 146.253 130.4 145.007 130.4 143.489C130.4 141.943 131.041 140.683 132.323 139.709C133.605 138.735 135.429 138.248 137.794 138.248C139.56 138.248 141.056 138.506 142.282 139.021C143.535 139.537 144.661 140.31 145.658 141.341L143.692 143.876L143.393 144.22L143.179 144.005C143.151 143.776 143.079 143.561 142.965 143.36C142.88 143.131 142.666 142.859 142.324 142.544C141.697 142.057 140.985 141.685 140.187 141.427C139.418 141.169 138.649 141.041 137.879 141.041C136.797 141.041 135.856 141.241 135.059 141.642C134.289 142.014 133.905 142.573 133.905 143.317C133.905 143.947 134.275 144.535 135.016 145.079C135.757 145.623 137.167 146.181 139.247 146.754C141.669 147.47 143.393 148.286 144.419 149.203C145.473 150.119 146 151.294 146 152.726C146 153.842 145.701 154.874 145.102 155.819C144.504 156.764 143.592 157.523 142.367 158.095C141.17 158.64 139.674 158.912 137.879 158.912Z" fill="black"/>
</svg>
